<?xml version="1.0" standalone="no"?>
<!DOCTYPE svg PUBLIC "-//W3C//DTD SVG 20010904//EN"
 "http://www.w3.org/TR/2001/REC-SVG-20010904/DTD/svg10.dtd">
<svg version="1.0" xmlns="http://www.w3.org/2000/svg"
 width="1254.000000pt" height="1280.000000pt" viewBox="0 0 1254.000000 1280.000000"
 preserveAspectRatio="xMidYMid meet">
<metadata>
Created by potrace 1.15, written by Peter Selinger 2001-2017
</metadata>
<g transform="translate(0.000000,1280.000000) scale(0.100000,-0.100000)"
fill="#212121" stroke="none">
<path d="M5061 12746 c-35 -30 -73 -56 -85 -58 -11 -2 -58 9 -102 25 -66 22
-87 25 -109 17 -17 -7 -33 -7 -45 0 -30 16 -46 12 -58 -15 -9 -18 -19 -25 -41
-25 -19 0 -35 -8 -45 -22 l-15 -22 -48 26 c-43 23 -63 26 -190 31 l-142 5 -33
-32 c-33 -32 -36 -33 -143 -38 -131 -6 -181 -24 -191 -65 -12 -49 -23 -55 -81
-48 -81 10 -151 -14 -215 -75 -44 -42 -59 -50 -91 -50 -21 0 -54 7 -75 16 -44
18 -163 11 -226 -14 -35 -14 -41 -14 -71 2 -18 10 -54 42 -80 72 -25 30 -54
54 -64 54 -25 0 -49 -39 -57 -92 -10 -67 -122 -249 -181 -294 -39 -29 -160
-79 -232 -94 -55 -12 -119 -38 -143 -58 -22 -18 -23 -53 -4 -90 12 -24 12 -38
1 -90 -7 -35 -20 -71 -29 -81 -22 -24 -20 -89 4 -126 29 -44 27 -113 -5 -156
-13 -19 -37 -52 -52 -75 -44 -64 -164 -171 -224 -199 -30 -13 -71 -25 -92 -25
-66 0 -105 -23 -128 -77 -60 -140 -84 -175 -166 -233 -62 -44 -85 -96 -92
-210 l-6 -94 -33 -10 c-19 -5 -42 -23 -54 -40 -12 -17 -34 -44 -49 -61 -15
-16 -41 -67 -58 -112 -45 -124 -68 -164 -121 -213 -40 -37 -49 -53 -55 -92
-10 -68 16 -140 71 -194 27 -26 44 -51 44 -66 0 -12 3 -39 6 -59 5 -31 2 -41
-25 -68 -24 -24 -30 -38 -26 -54 7 -24 62 -81 86 -89 12 -4 12 -8 0 -31 -10
-18 -12 -43 -7 -91 7 -59 5 -69 -20 -112 -30 -51 -43 -106 -53 -229 l-6 -80
-48 -31 c-74 -48 -97 -74 -97 -106 0 -38 15 -66 56 -104 32 -30 34 -35 34
-102 0 -39 -5 -94 -11 -121 -19 -91 25 -161 109 -174 63 -11 89 -37 97 -102 6
-51 9 -57 40 -69 27 -12 40 -29 69 -88 19 -40 36 -82 38 -93 2 -14 12 -21 32
-23 18 -2 47 -23 83 -58 54 -54 54 -55 43 -90 -20 -59 -6 -96 61 -161 33 -32
70 -75 82 -96 14 -25 31 -40 51 -45 23 -6 34 -17 42 -40 16 -49 99 -127 190
-178 96 -54 148 -104 166 -159 12 -36 17 -40 50 -43 27 -2 41 -10 49 -25 15
-29 28 -37 59 -37 14 0 40 -9 58 -20 18 -11 39 -20 48 -20 16 0 119 50 173 85
22 14 60 25 96 29 38 4 71 14 90 28 37 28 99 33 236 20 115 -11 185 -35 231
-79 l27 -25 31 22 c18 13 52 27 77 31 24 5 63 22 86 38 23 16 60 34 81 39 21
6 49 21 61 32 17 16 46 25 111 33 81 11 89 14 94 37 5 21 15 26 70 36 67 13
381 17 435 5 21 -4 31 -13 33 -29 2 -14 17 -29 41 -42 39 -19 90 -71 92 -93 1
-7 2 -36 3 -66 1 -41 6 -57 21 -68 57 -40 98 -63 112 -63 9 0 45 16 80 35 61
33 68 35 162 35 l99 0 61 -66 c89 -98 115 -156 119 -274 3 -79 0 -113 -21
-191 -14 -52 -28 -121 -32 -154 -4 -33 -18 -94 -32 -135 -14 -41 -27 -104 -30
-140 -6 -77 15 -137 82 -235 23 -33 54 -81 69 -107 14 -26 49 -73 77 -105 27
-31 52 -67 54 -80 3 -13 7 -33 10 -46 3 -14 17 -29 37 -38 22 -9 34 -22 36
-39 2 -14 12 -34 22 -45 40 -45 80 -120 80 -152 0 -26 6 -36 25 -45 14 -6 25
-14 25 -18 0 -4 -11 -15 -25 -24 -34 -22 -32 -41 15 -110 22 -32 40 -69 40
-82 0 -12 20 -64 45 -115 51 -104 54 -127 24 -175 -33 -55 -29 -107 18 -209
22 -49 51 -119 63 -155 37 -104 17 -157 -81 -215 -42 -25 -81 -100 -87 -168
-2 -29 -12 -60 -20 -70 -10 -11 -20 -56 -28 -122 -10 -88 -16 -111 -42 -150
-17 -26 -33 -66 -36 -89 -32 -276 -38 -420 -23 -480 5 -16 30 -50 56 -75 34
-33 53 -62 66 -101 9 -30 27 -66 40 -80 28 -32 61 -112 70 -170 12 -86 37
-140 105 -236 76 -106 86 -134 71 -191 -17 -61 -13 -123 15 -214 21 -71 25
-96 20 -159 -5 -61 -2 -87 14 -132 11 -32 20 -72 20 -89 0 -57 33 -214 52
-249 56 -102 86 -145 113 -160 42 -23 98 -161 96 -238 -1 -63 26 -135 59 -152
12 -6 33 -35 47 -63 13 -29 35 -67 49 -86 19 -26 24 -47 24 -90 0 -69 -6 -79
-50 -83 -24 -2 -36 -9 -38 -21 -8 -39 10 -89 44 -126 38 -42 42 -62 18 -82
-15 -12 -14 -15 6 -31 12 -10 39 -21 60 -24 28 -5 51 -19 86 -55 27 -27 56
-49 64 -49 9 0 36 13 61 29 42 28 127 51 210 56 20 2 51 13 68 26 21 16 42 22
66 20 66 -5 120 -3 169 4 30 5 74 3 115 -5 67 -12 68 -12 142 21 54 25 87 33
124 32 41 -1 55 4 82 28 26 22 42 28 72 27 32 -1 48 6 87 38 93 77 235 219
259 260 20 34 32 43 69 53 32 8 52 21 69 44 100 137 173 247 222 335 46 81 63
103 84 108 48 10 51 13 51 45 0 18 15 60 34 93 37 68 64 175 76 303 7 82 9 86
50 128 52 53 135 98 212 114 44 9 69 22 105 55 l48 43 1 94 c1 60 7 110 17
138 22 57 21 83 -3 132 -14 27 -19 50 -15 72 4 22 0 47 -14 77 -11 25 -21 60
-21 78 0 22 -8 39 -25 54 -55 48 -18 133 65 148 82 15 98 26 111 70 10 32 31
59 92 113 43 39 101 99 128 134 55 71 121 114 203 132 44 10 69 25 134 82 83
72 91 84 97 145 2 28 17 50 68 102 87 91 101 120 92 191 -4 31 -6 103 -5 161
6 340 7 355 24 389 23 44 14 76 -32 105 -98 63 -142 130 -142 218 0 21 -9 57
-19 80 -11 24 -24 77 -30 118 -12 79 -6 120 23 162 32 45 15 107 -43 162 -36
35 -39 62 -11 116 24 48 49 62 109 64 46 1 46 1 49 38 4 49 -11 75 -48 83 -35
8 -37 18 -11 52 11 13 23 45 26 71 13 106 16 113 61 158 24 25 44 51 44 59 0
7 29 44 65 81 36 37 65 75 65 84 0 19 89 123 164 190 27 25 67 72 89 105 79
118 302 331 412 394 79 45 116 81 140 136 17 38 48 74 122 142 102 94 118 119
147 223 10 36 32 76 64 115 63 78 74 99 83 161 4 29 14 67 23 85 8 19 22 54
31 77 18 54 105 210 153 275 47 65 61 108 62 192 0 41 7 80 15 95 8 14 14 43
14 65 0 22 -6 51 -14 65 -8 14 -14 39 -15 56 0 31 -26 64 -49 64 -7 0 -29 -11
-49 -25 -64 -44 -191 -88 -234 -81 -25 4 -53 0 -88 -14 -28 -11 -72 -20 -99
-20 -42 0 -53 -5 -85 -36 l-38 -37 -81 6 c-72 6 -91 4 -174 -23 -108 -35 -182
-39 -206 -12 -9 10 -24 41 -33 70 -22 66 -43 86 -94 84 -29 -1 -42 3 -49 16
-14 26 5 52 38 52 37 0 55 22 46 57 -3 16 -9 45 -12 66 -4 32 -11 41 -38 53
-19 7 -37 24 -41 36 -4 13 -20 42 -35 65 -16 23 -29 46 -29 51 0 17 -35 40
-80 52 -25 6 -52 13 -62 16 -9 3 -23 22 -31 42 -15 37 -88 107 -152 147 -16
11 -47 34 -68 52 -20 18 -43 33 -51 33 -24 0 -58 52 -52 80 8 39 -45 256 -86
350 -33 77 -35 80 -69 80 -25 0 -30 5 -35 30 -5 23 -12 30 -29 30 -70 0 -115
99 -115 253 0 116 -12 170 -62 279 -52 110 -91 164 -126 171 -67 14 -116 99
-92 162 6 15 10 39 10 55 0 23 -5 31 -25 36 -27 7 -45 31 -45 62 0 24 -75 169
-105 202 -13 14 -30 39 -38 56 -9 16 -34 49 -56 71 -40 39 -41 43 -41 108 0
62 -2 69 -31 93 -123 108 -253 352 -210 398 5 5 -13 57 -45 127 -30 65 -54
122 -54 126 0 5 12 7 28 5 40 -6 19 2 -100 36 -111 32 -128 31 -157 -4 -7 -8
-26 -18 -43 -21 -20 -5 -37 -19 -50 -41 -11 -19 -28 -39 -38 -44 -27 -14 -79
-12 -137 5 -28 8 -75 20 -104 25 -30 6 -67 20 -82 31 -16 12 -68 29 -120 39
-51 10 -100 22 -109 25 -11 4 -21 0 -30 -14 -20 -32 -35 -26 -69 29 -16 27
-38 51 -47 54 -9 2 -69 7 -132 11 -148 8 -150 9 -150 49 0 39 -25 66 -71 75
-22 4 -38 16 -49 36 -25 46 -68 46 -119 0 -27 -24 -61 -42 -106 -55 -79 -23
-90 -31 -105 -75 -9 -27 -7 -43 10 -91 11 -32 20 -69 20 -82 0 -43 -31 -92
-75 -117 -58 -34 -93 -32 -151 10 -101 73 -106 75 -171 75 -59 0 -105 13 -230
65 -38 17 -76 66 -93 120 -26 82 -43 94 -158 102 -72 6 -79 8 -110 41 -29 30
-45 37 -105 48 -40 7 -92 13 -117 14 -76 1 -119 17 -142 56 -21 35 -33 40 -57
25 -10 -7 -24 -2 -44 15 -16 13 -32 24 -37 24 -4 0 -13 13 -20 29 -17 42 4 82
50 97 22 7 38 21 45 38 6 14 21 35 33 46 37 34 30 83 -18 130 -35 34 -40 45
-40 83 0 35 7 53 36 90 34 44 38 67 10 67 -7 0 -23 -11 -36 -25 l-24 -25 -50
49 c-92 88 -110 90 -195 17z m3409 -6356 c0 -5 -4 -10 -10 -10 -5 0 -10 5 -10
10 0 6 5 10 10 10 6 0 10 -4 10 -10z"/>
<path d="M1662 11348 c-17 -17 -15 -48 5 -55 11 -4 24 3 40 23 12 16 23 32 23
37 0 12 -55 8 -68 -5z"/>
<path d="M1042 11263 c-7 -2 -17 -13 -22 -23 -8 -15 -6 -17 23 -11 18 4 32 13
32 21 0 15 -14 21 -33 13z"/>
<path d="M1602 11236 c-29 -49 -35 -75 -22 -91 19 -23 48 -18 75 11 30 32 32
74 7 97 -27 24 -38 21 -60 -17z"/>
<path d="M1225 11230 c-12 -4 -27 -15 -34 -24 -12 -15 -10 -21 14 -46 16 -17
34 -30 40 -30 18 0 63 53 70 83 7 26 6 27 -31 26 -22 0 -48 -4 -59 -9z"/>
<path d="M1360 11154 c-16 -19 -4 -61 23 -78 40 -25 75 38 41 75 -21 23 -47
24 -64 3z"/>
<path d="M0 9067 c0 -20 21 -37 46 -37 33 0 38 16 12 34 -27 19 -58 21 -58 3z"/>
<path d="M68 8869 c-20 -11 -25 -73 -8 -84 13 -8 66 21 74 41 17 43 -23 69
-66 43z"/>
<path d="M5025 6848 c-44 -24 -56 -56 -29 -82 39 -39 94 -3 94 61 0 28 -4 33
-22 33 -13 0 -32 -6 -43 -12z"/>
<path d="M3907 5584 c-13 -13 15 -34 45 -34 23 0 29 4 26 18 -3 17 -57 30 -71
16z"/>
<path d="M9797 5094 c-12 -12 -8 -31 13 -55 l19 -24 1 26 c0 28 -22 64 -33 53z"/>
<path d="M10370 4090 c0 -13 7 -20 20 -20 13 0 20 7 20 20 0 13 -7 20 -20 20
-13 0 -20 -7 -20 -20z"/>
<path d="M11256 3970 c-20 -22 -36 -44 -36 -48 0 -5 11 -18 25 -30 14 -12 25
-27 25 -34 0 -19 -98 -108 -119 -108 -28 0 -51 -27 -51 -59 0 -16 -10 -37 -25
-51 -16 -15 -25 -34 -25 -53 0 -28 -2 -29 -31 -23 -37 7 -69 -8 -69 -33 0 -24
-23 -43 -47 -39 -13 2 -19 -4 -21 -22 -5 -37 -27 -56 -97 -84 -35 -14 -78 -34
-97 -46 -18 -11 -43 -20 -54 -20 -12 0 -33 -9 -48 -21 -15 -11 -39 -24 -54
-28 -23 -6 -27 -13 -30 -47 -2 -24 -12 -49 -27 -64 -32 -35 -51 -75 -70 -150
-19 -74 -14 -102 26 -147 16 -18 31 -46 35 -61 3 -15 10 -40 15 -56 17 -53 10
-118 -16 -161 -35 -58 -43 -75 -55 -122 -7 -28 -28 -62 -64 -100 -29 -32 -61
-72 -70 -90 -27 -53 -21 -118 19 -193 24 -48 37 -89 44 -146 21 -165 28 -184
90 -242 31 -29 70 -56 87 -61 68 -19 181 21 298 104 72 51 78 62 101 194 9 52
25 102 44 134 19 33 36 85 46 141 11 58 26 103 43 128 19 29 26 55 28 95 2 46
7 60 32 87 28 28 47 71 88 196 8 24 26 56 40 71 31 33 43 81 44 175 0 88 20
158 65 223 29 42 35 59 35 104 0 64 6 72 38 51 35 -23 56 -11 48 28 -3 17 -1
56 5 87 11 51 10 60 -10 99 -19 37 -21 57 -20 155 2 105 1 116 -23 157 -14 25
-29 60 -33 77 -7 35 -46 73 -75 73 -10 0 -34 -18 -54 -40z"/>
<path d="M12472 2590 c-22 -9 -52 -63 -52 -95 0 -29 38 -15 79 30 40 43 51 65
32 65 -5 0 -15 2 -23 4 -7 3 -23 1 -36 -4z"/>
<path d="M12097 2415 c-26 -25 -10 -47 32 -43 31 3 36 6 36 28 0 20 -6 26 -26
28 -15 2 -34 -4 -42 -13z"/>
</g>
</svg>
